<svg id="Component_7" data-name="Component 7" xmlns="http://www.w3.org/2000/svg" width="24" height="24" viewBox="0 0 24 24">
  <rect id="Rectangle_11" data-name="Rectangle 11" width="24" height="24" fill="none"/>
  <g id="_24px_search" data-name="24px_search">
    <path id="Path_27" data-name="Path 27" d="M10,19a9,9,0,1,1,9-9A9,9,0,0,1,10,19ZM10,3a7,7,0,1,0,7,7,7,7,0,0,0-7-7Z" fill="#bdbdbd"/>
    <path id="Path_28" data-name="Path 28" d="M7,10H5a5.006,5.006,0,0,1,5-5V7a3,3,0,0,0-3,3Z" fill="#bdbdbd"/>
    <path id="Path_29" data-name="Path 29" d="M22.707,21.293l-4.256-4.256a10.982,10.982,0,0,1-1.414,1.414l4.256,4.256a1,1,0,1,0,1.414-1.414Z" fill="#bdbdbd"/>
  </g>
</svg>
